<?xml version="1.0" encoding="UTF-8" standalone="no"?>
<!DOCTYPE svg PUBLIC "-//W3C//DTD SVG 1.1//EN" "http://www.w3.org/Graphics/SVG/1.1/DTD/svg11.dtd">
<svg width="100%" height="100%" viewBox="0 0 2254 380" version="1.1" xmlns="http://www.w3.org/2000/svg" xmlns:xlink="http://www.w3.org/1999/xlink" xml:space="preserve" xmlns:serif="http://www.serif.com/" style="fill-rule:evenodd;clip-rule:evenodd;stroke-linejoin:round;stroke-miterlimit:2;">
    <g transform="matrix(1,0,0,1,-30698.4,-6512.27)">
        <g id="Artboard1" transform="matrix(6.68679,0,0,4.62297,-40649.6,-167372)">
            <rect x="10670" y="37613" width="337" height="82" style="fill:none;"/>
            <clipPath id="_clip1">
                <rect x="10670" y="37613" width="337" height="82"/>
            </clipPath>
            <g clip-path="url(#_clip1)">
                <g id="font" transform="matrix(0.220485,0,0,0.566961,10556.3,37245.8)">
                    <g transform="matrix(284.219,0,0,159.873,496.449,763.253)">
                        <path d="M0.079,-0.605C0.064,-0.62 0.064,-0.697 0.079,-0.712C0.094,-0.727 0.171,-0.727 0.186,-0.712C0.201,-0.697 0.201,-0.62 0.186,-0.605C0.171,-0.59 0.094,-0.59 0.079,-0.605Z" style="fill:white;fill-rule:nonzero;"/>
                    </g>
                    <g transform="matrix(357.246,0,0,200.951,494.99,789.703)">
                        <rect x="0.066" y="-0.5" width="0.087" height="0.5" style="fill:white;fill-rule:nonzero;"/>
                    </g>
                    <g transform="matrix(357.246,0,0,200.951,911.896,789.703)">
                        <path d="M0.127,-0.21C0.136,-0.165 0.156,-0.131 0.189,-0.106C0.221,-0.081 0.261,-0.069 0.308,-0.069C0.374,-0.069 0.425,-0.098 0.455,-0.147L0.526,-0.104C0.477,-0.029 0.404,0.013 0.306,0.013C0.227,0.013 0.162,-0.012 0.113,-0.062C0.063,-0.111 0.038,-0.174 0.038,-0.25C0.038,-0.325 0.062,-0.388 0.111,-0.438C0.16,-0.488 0.223,-0.513 0.3,-0.513C0.373,-0.513 0.433,-0.487 0.48,-0.436C0.526,-0.384 0.549,-0.322 0.549,-0.249C0.549,-0.236 0.548,-0.223 0.546,-0.21L0.127,-0.21ZM0.3,-0.431C0.253,-0.431 0.215,-0.418 0.184,-0.392C0.153,-0.365 0.134,-0.33 0.127,-0.286L0.461,-0.286C0.454,-0.333 0.435,-0.369 0.405,-0.394C0.375,-0.419 0.34,-0.431 0.3,-0.431Z" style="fill:white;fill-rule:nonzero;"/>
                    </g>
                    <g transform="matrix(357.246,0,0,200.951,1104.09,789.703)">
                        <path d="M0.141,-0.365C0.141,-0.346 0.151,-0.33 0.17,-0.319C0.189,-0.307 0.213,-0.298 0.24,-0.291C0.267,-0.284 0.295,-0.276 0.322,-0.267C0.349,-0.258 0.373,-0.242 0.392,-0.221C0.411,-0.199 0.421,-0.171 0.421,-0.137C0.421,-0.092 0.403,-0.055 0.369,-0.028C0.333,-0.001 0.289,0.013 0.234,0.013C0.185,0.013 0.144,0.002 0.109,-0.019C0.074,-0.04 0.05,-0.069 0.035,-0.104L0.11,-0.147C0.118,-0.123 0.133,-0.104 0.155,-0.09C0.177,-0.076 0.203,-0.069 0.234,-0.069C0.263,-0.069 0.286,-0.075 0.305,-0.086C0.324,-0.097 0.333,-0.114 0.333,-0.137C0.333,-0.156 0.323,-0.172 0.304,-0.184C0.285,-0.195 0.261,-0.205 0.234,-0.212C0.207,-0.219 0.179,-0.227 0.152,-0.236C0.125,-0.245 0.101,-0.261 0.082,-0.282C0.063,-0.303 0.053,-0.331 0.053,-0.364C0.053,-0.407 0.07,-0.443 0.104,-0.471C0.137,-0.499 0.179,-0.513 0.23,-0.513C0.271,-0.513 0.307,-0.504 0.339,-0.486C0.37,-0.467 0.394,-0.442 0.41,-0.409L0.337,-0.368C0.319,-0.411 0.283,-0.432 0.23,-0.432C0.205,-0.432 0.184,-0.426 0.167,-0.415C0.15,-0.403 0.141,-0.386 0.141,-0.365Z" style="fill:white;fill-rule:nonzero;"/>
                    </g>
                    <g transform="matrix(357.246,0,0,200.951,1251.64,789.703)">
                        <path d="M0.313,-0.416L0.205,-0.416L0.205,-0.145C0.205,-0.12 0.208,-0.102 0.225,-0.088C0.24,-0.074 0.278,-0.077 0.313,-0.078L0.313,0C0.237,0.01 0.206,0.004 0.171,-0.019C0.136,-0.041 0.118,-0.083 0.118,-0.145L0.118,-0.416L0.025,-0.416L0.025,-0.5L0.118,-0.5L0.118,-0.64L0.205,-0.64L0.205,-0.5L0.313,-0.5L0.313,-0.416Z" style="fill:white;fill-rule:nonzero;"/>
                    </g>
                    <g transform="matrix(357.246,0,0,200.951,1362.6,789.703)">
                        <path d="M0.488,-0.063C0.437,-0.012 0.374,0.013 0.301,0.013C0.228,0.013 0.166,-0.012 0.115,-0.063C0.064,-0.114 0.038,-0.176 0.038,-0.25C0.038,-0.324 0.064,-0.386 0.115,-0.437C0.166,-0.488 0.228,-0.513 0.301,-0.513C0.374,-0.513 0.437,-0.488 0.488,-0.437C0.539,-0.386 0.565,-0.324 0.565,-0.25C0.565,-0.176 0.539,-0.114 0.488,-0.063ZM0.301,-0.072C0.351,-0.072 0.393,-0.089 0.427,-0.123C0.461,-0.157 0.478,-0.199 0.478,-0.25C0.478,-0.301 0.461,-0.343 0.427,-0.377C0.393,-0.411 0.351,-0.428 0.301,-0.428C0.252,-0.428 0.21,-0.411 0.176,-0.377C0.142,-0.343 0.125,-0.301 0.125,-0.25C0.125,-0.199 0.142,-0.157 0.176,-0.123C0.21,-0.089 0.252,-0.072 0.301,-0.072Z" style="fill:white;fill-rule:nonzero;"/>
                    </g>
                    <g transform="matrix(357.246,0,0,200.951,1561.58,789.703)">
                        <path d="M0.488,-0.063C0.437,-0.012 0.374,0.013 0.301,0.013C0.228,0.013 0.166,-0.012 0.115,-0.063C0.064,-0.114 0.038,-0.176 0.038,-0.25C0.038,-0.324 0.064,-0.386 0.115,-0.437C0.166,-0.488 0.228,-0.513 0.301,-0.513C0.374,-0.513 0.437,-0.488 0.488,-0.437C0.539,-0.386 0.565,-0.324 0.565,-0.25C0.565,-0.176 0.539,-0.114 0.488,-0.063ZM0.301,-0.072C0.351,-0.072 0.393,-0.089 0.427,-0.123C0.461,-0.157 0.478,-0.199 0.478,-0.25C0.478,-0.301 0.461,-0.343 0.427,-0.377C0.393,-0.411 0.351,-0.428 0.301,-0.428C0.252,-0.428 0.21,-0.411 0.176,-0.377C0.142,-0.343 0.125,-0.301 0.125,-0.25C0.125,-0.199 0.142,-0.157 0.176,-0.123C0.21,-0.089 0.252,-0.072 0.301,-0.072Z" style="fill:white;fill-rule:nonzero;"/>
                    </g>
                    <g transform="matrix(0.853844,0,0,0.480287,189.796,227.435)">
                        <path d="M607.218,1043.03C607.218,1014.08 581.966,990.579 550.943,990.579C519.921,990.579 494.669,1014.08 494.669,1043.03L494.669,1170.69L458.269,1170.69L458.269,1043.03L458.269,1042.75C458.435,995.145 499.897,956.553 550.943,956.553C602.092,956.553 643.618,995.3 643.618,1043.03L643.618,1170.69L607.218,1170.69L607.218,1043.03Z" style="fill:white;"/>
                    </g>
                    <g transform="matrix(0.853844,0,0,0.480287,181.796,227.435)">
                        <path d="M2028.85,989.695C2044.41,969.237 2068.79,956.053 2096.17,956.053C2143.11,956.053 2181.23,994.8 2181.23,1042.53L2181.23,1170.19L2144.82,1170.19L2144.82,1042.53C2144.82,1013.58 2124.64,990.079 2096.17,990.079C2068.88,990.079 2049.22,1011.67 2047.63,1038.94C2047.71,1040.46 2047.75,1041.99 2047.75,1043.53L2047.75,1171.19L2011.34,1171.19L2011.34,1170.19L2011.11,1170.19L2011.11,1042.53L2011.11,1042.25C2011.12,1041.21 2011.14,1040.18 2011.18,1039.17C2009.17,1012.26 1988.72,991.079 1961.69,991.079C1933.22,991.079 1913.04,1014.58 1913.04,1043.53L1913.04,1171.19L1876.63,1171.19L1876.63,1043.53L1876.63,1043.25C1876.79,995.645 1914.84,957.053 1961.69,957.053C1988.62,957.053 2012.98,969.806 2028.85,989.695Z" style="fill:white;"/>
                    </g>
                    <g transform="matrix(0.853844,0,0,0.480287,189.796,227.435)">
                        <path d="M652.128,961.492L689.535,961.492L750.459,1130.72C751.506,1132.95 753.694,1134.47 756.216,1134.47C758.497,1134.47 760.505,1133.22 761.651,1131.34C761.651,1131.34 822.799,961.492 822.799,961.492L860.206,961.492L794.494,1144.02L794.492,1144.02C788.38,1159.95 773.534,1171.19 756.216,1171.19C738.886,1171.19 724.032,1159.94 717.91,1144L652.128,961.492Z" style="fill:white;"/>
                    </g>
                </g>
            </g>
        </g>
    </g>
</svg>
